<svg width="100%" height="100%" viewBox="0 0 130 130" version="1.1" xmlns="http://www.w3.org/2000/svg" xmlns:xlink="http://www.w3.org/1999/xlink" xml:space="preserve" xmlns:serif="http://www.serif.com/" style="fill-rule:evenodd;clip-rule:evenodd;stroke-linejoin:round;stroke-miterlimit:2;">
                    <g id="path6814" transform="matrix(1.18764,0,0,1.18764,1.42109e-14,20.5475)">
                        <path
                            d="M94.465,43.188C94.465,21.296 76.623,3.454 54.73,3.454C32.838,3.454 14.996,21.296 14.996,43.188C14.996,53.313 18.827,63 25.778,70.389C26.708,71.374 28.241,71.429 29.281,70.499L33.55,66.448C34.535,65.518 34.59,63.986 33.659,63C28.624,57.637 25.833,50.577 25.833,43.243C25.833,27.316 38.804,14.345 54.73,14.345C70.657,14.345 83.628,27.316 83.628,43.243C83.628,50.631 80.837,57.637 75.802,63C74.871,63.986 74.926,65.518 75.911,66.448L80.18,70.499C81.165,71.429 82.752,71.374 83.683,70.389C90.634,62.946 94.465,53.313 94.465,43.188"
                            style="fill:currentColor;fill-rule:nonzero;" />
                    </g>
                    <g id="path6820" transform="matrix(1.18764,0,0,1.18764,1.42109e-14,20.5475)">
                        <path
                            d="M109.461,42.969C109.461,37.551 108.64,32.242 107.053,27.097C106.615,25.838 105.247,25.127 103.988,25.51L98.351,27.261C97.037,27.645 96.326,29.013 96.709,30.326C97.968,34.431 98.624,38.645 98.624,42.969C98.624,50.631 96.545,58.075 92.659,64.642C91.947,65.792 92.33,67.324 93.534,67.981L98.57,70.991C99.719,71.703 101.251,71.319 101.963,70.17C106.889,62.015 109.461,52.602 109.461,42.969"
                            style="fill:currentColor;fill-rule:nonzero;" />
                    </g>
                    <g id="path6826" transform="matrix(1.18764,0,0,1.18764,1.42109e-14,20.5475)">
                        <path
                            d="M16.802,64.642C12.916,58.129 10.837,50.631 10.837,42.969C10.837,38.645 11.493,34.376 12.752,30.326C13.135,29.013 12.424,27.645 11.11,27.261L5.473,25.51C4.16,25.127 2.791,25.838 2.408,27.097C0.821,32.242 0,37.551 0,42.969C0,52.602 2.627,62.015 7.498,70.225C8.21,71.374 9.687,71.757 10.891,71.046L15.927,68.036C17.076,67.324 17.459,65.792 16.802,64.642"
                            style="fill:currentColor;fill-rule:nonzero;" />
                    </g>
                </svg>