<svg clip-rule="evenodd" fill-rule="evenodd" stroke-linejoin="round" stroke-miterlimit="2" version="1.1" viewBox="0 0 130 130" xml:space="preserve" xmlns="http://www.w3.org/2000/svg">
                    <g transform="matrix(.033333 0 0 .033333 65 65)">
                        <g transform="translate(-1950 -935.42)">
                            <clipPath id="a">
                                <rect width="3900" height="1870.8" />
                            </clipPath>
                            <g clip-path="url(#a)">
                                <g transform="scale(4.1667)">
                                    <path
                                        d="m925.01 359.52c6.274-5.975 10.236-14.348 10.236-23.693 0-8.994-4.28-17.078-10.141-22.997l-264.06-264.06-79.702 79.701 207.9 207.9h-294.55c-14.399-0.431-25.81-5.262-35.465-14.619l-132.17-132.17c-13.705-12.96-32.479-21.16-52.834-21.16-0.072 0-0.139 0.01-0.201 0.01v-0.01h-161.3v-55.152h167.06v0.011c33.099 0.016 62.631 13.563 84.278 35.303l98.584 98.583 79.702-79.702-100.5-100.5c-42.008-41.369-98.74-66.412-162.35-66.412-0.067 0-0.138 4e-3 -0.206 4e-3v-4e-3h-279.28v280.58h236.38v0.018c15.374 0.11 29.254 6.433 39.276 16.588l129.44 129.44c13.166 12.93 30.955 21.081 50.68 21.815h357.57c15.053-0.198 28.648-6.361 38.57-16.254l73.147-73.14-0.055-0.091z"
                                        fill="currentColor" fill-rule="nonzero" />
                                </g>
                            </g>
                        </g>
                    </g>
                </svg>