 <svg width="100%" height="100%" viewBox="0 0 130 130" version="1.1" xmlns="http://www.w3.org/2000/svg" xmlns:xlink="http://www.w3.org/1999/xlink" xml:space="preserve" xmlns:serif="http://www.serif.com/" style="fill-rule:evenodd;clip-rule:evenodd;stroke-linejoin:round;stroke-miterlimit:2;">
                    <g transform="matrix(0.146793,0,0,0.146793,17.9234,26.2833)">
                        <path
                            d="M-79.3,271C-81.2,271 -82.7,272.5 -83,274.6L-91.7,354.1L-83,431.9C-82.7,434 -81.2,435.5 -79.3,435.5C-77.4,435.5 -75.9,434 -75.6,431.9L-65.7,354.1L-75.6,274.6C-75.9,272.5 -77.4,271 -79.3,271"
                            style="fill:currentColor;fill-rule:nonzero;" />
                    </g>
                    <g transform="matrix(0.146793,0,0,0.146793,17.9234,26.2833)">
                        <path
                            d="M-112,301.5C-113.8,301.5 -115.3,302.9 -115.6,305L-122.1,354.2L-115.6,402.5C-115.3,404.5 -113.9,405.9 -112,405.9C-110.2,405.9 -108.7,404.5 -108.5,402.5L-100.8,354.1L-108.5,304.9C-108.7,302.9 -110.2,301.5 -112,301.5"
                            style="fill:currentColor;fill-rule:nonzero;" />
                    </g>
                    <g transform="matrix(0.146793,0,0,0.146793,17.9234,26.2833)">
                        <path
                            d="M-44.4,255.4C-46.7,255.4 -48.6,257.2 -48.8,259.8L-57.1,354.1L-48.8,445C-48.6,447.5 -46.7,449.4 -44.4,449.4C-42.1,449.4 -40.2,447.6 -40,445.1L-30.6,354.2L-40,259.9C-40.3,257.2 -42.1,255.4 -44.4,255.4"
                            style="fill:currentColor;fill-rule:nonzero;" />
                    </g>
                    <g transform="matrix(0.146793,0,0,0.146793,17.9234,26.2833)">
                        <path
                            d="M-9.4,252.1C-12.1,252.1 -14.4,254.3 -14.6,257.2L-22.4,354.1L-14.6,447.9C-14.4,450.8 -12.1,453 -9.4,453C-6.7,453 -4.5,450.8 -4.2,447.9L4.7,354.1L-4.2,257.1C-4.5,254.3 -6.7,252.1 -9.4,252.1"
                            style="fill:currentColor;fill-rule:nonzero;" />
                    </g>
                    <g transform="matrix(0.146793,0,0,0.146793,17.9234,26.2833)">
                        <path
                            d="M31.9,264.2C31.7,260.9 29.1,258.4 26,258.4C22.8,258.4 20.2,260.9 20,264.3L12.6,354.2L20,448.7C20.2,452 22.8,454.6 26,454.6C29.2,454.6 31.7,452.1 31.9,448.7L40.3,354.2L31.9,264.2Z"
                            style="fill:currentColor;fill-rule:nonzero;" />
                    </g>
                    <g transform="matrix(0.146793,0,0,0.146793,17.9234,26.2833)">
                        <path
                            d="M61.6,201.2C58,201.2 55.1,204.1 54.9,207.8L48,354.1L54.9,448.6C55.1,452.3 58,455.2 61.6,455.2C65.1,455.2 68.1,452.3 68.3,448.6L76.1,354.1L68.3,207.8C68.1,204.1 65.1,201.2 61.6,201.2"
                            style="fill:currentColor;fill-rule:nonzero;" />
                    </g>
                    <g transform="matrix(0.146793,0,0,0.146793,17.9234,26.2833)">
                        <path
                            d="M97,167.5C93,167.5 89.7,170.7 89.5,174.9L83,354.7L89.5,448.6C89.7,452.7 92.9,456 97,456C101,456 104.3,452.8 104.5,448.6L111.8,354.6L104.5,174.8C104.2,170.8 100.9,167.5 97,167.5"
                            style="fill:currentColor;fill-rule:nonzero;" />
                    </g>
                    <g transform="matrix(0.146793,0,0,0.146793,17.9234,26.2833)">
                        <path
                            d="M133.7,151.3C129.2,151.3 125.6,154.9 125.5,159.5L119.5,354.3L125.5,447.3C125.6,451.8 129.2,455.4 133.7,455.4C138.1,455.4 141.7,451.8 141.9,447.3L141.9,447.4L148.7,354.4L141.9,159.6C141.7,154.9 138.1,151.3 133.7,151.3"
                            style="fill:currentColor;fill-rule:nonzero;" />
                    </g>
                    <g transform="matrix(0.146793,0,0,0.146793,17.9234,26.2833)">
                        <path
                            d="M179.2,152.9C179,147.9 175.1,144 170.2,144C165.3,144 161.4,147.9 161.2,152.9L155.6,354.2L161.2,446.6C161.4,451.5 165.3,455.5 170.2,455.5C175.1,455.5 179,451.6 179.2,446.6L185.5,354.2L179.2,152.9Z"
                            style="fill:currentColor;fill-rule:nonzero;" />
                    </g>
                    <g transform="matrix(0.146793,0,0,0.146793,17.9234,26.2833)">
                        <path
                            d="M207,148.4C201.7,148.4 197.4,152.6 197.3,158.1L192.2,354.3L197.3,445.8C197.4,451.2 201.7,455.4 207,455.4C212.3,455.4 216.6,451.1 216.7,445.7L216.7,445.8L222.5,354.2L216.7,158C216.5,152.6 212.3,148.4 207,148.4"
                            style="fill:currentColor;fill-rule:nonzero;" />
                    </g>
                    <g transform="matrix(0.146793,0,0,0.146793,17.9234,26.2833)">
                        <path
                            d="M244.1,154.8C238.3,154.8 233.7,159.4 233.6,165.2L228.9,354.2L233.6,445.1C233.7,450.9 238.3,455.5 244.1,455.5C249.8,455.5 254.5,450.9 254.6,445.1L254.6,445.2L259.9,354.2L254.6,165.2C254.4,159.4 249.8,154.8 244.1,154.8"
                            style="fill:currentColor;fill-rule:nonzero;" />
                    </g>
                    <g transform="matrix(0.146793,0,0,0.146793,17.9234,26.2833)">
                        <path
                            d="M287.6,120C285.8,118.8 283.7,118.1 281.4,118.1C279.2,118.1 277.1,118.8 275.4,119.9C272.3,121.9 270.3,125.4 270.2,129.3L270.2,131.4L266,354.1L270.2,444.5L270.2,444.9C270.3,447.4 271.3,449.8 272.8,451.6C274.9,454.1 277.9,455.7 281.4,455.7C284.5,455.7 287.2,454.4 289.3,452.4C291.3,450.4 292.6,447.6 292.7,444.5L293.2,435.6L297.5,354.2L292.8,129.3C292.6,125.5 290.6,122.1 287.6,120"
                            style="fill:currentColor;fill-rule:nonzero;" />
                    </g>
                    <g transform="matrix(0.146793,0,0,0.146793,17.9234,26.2833)">
                        <path
                            d="M324.8,98.7C323,97.6 320.9,97 318.7,97C315.8,97 313.2,98 311.1,99.7C308.5,101.9 306.7,105.2 306.7,108.9L306.7,110.1L301.8,354.2L304.3,399.3L306.7,443.2C306.8,449.7 312.2,455.1 318.7,455.1C325.2,455.1 330.6,449.7 330.7,443.1L330.7,443.2L336,354.2L330.7,108.8C330.6,104.6 328.2,100.8 324.8,98.7"
                            style="fill:currentColor;fill-rule:nonzero;" />
                    </g>
                    <g transform="matrix(0.146793,0,0,0.146793,17.9234,26.2833)">
                        <path
                            d="M654.5,238.2C639.6,238.2 625.3,241.2 612.4,246.6C603.7,148.5 521.4,71.5 421.1,71.5C396.5,71.5 372.6,76.3 351.4,84.5C343.2,87.7 341,91 340.9,97.3L340.9,442.9C341,449.6 346.2,454.8 352.7,455.4L654.6,455.4C714.7,455.4 763.5,407.2 763.5,347C763.5,286.9 714.7,238.2 654.5,238.2"
                            style="fill:currentColor;fill-rule:nonzero;" />
                    </g>
                </svg>