 <svg width="100%" height="100%" viewBox="0 0 130 130" version="1.1" xmlns="http://www.w3.org/2000/svg" xmlns:xlink="http://www.w3.org/1999/xlink" xml:space="preserve" xmlns:serif="http://www.serif.com/" style="fill-rule:evenodd;clip-rule:evenodd;stroke-linejoin:round;stroke-miterlimit:2;">
                    <g transform="matrix(0.890411,0,0,0.884212,65,64.9896)">
                        <g transform="matrix(1,0,0,1,-73,-73.5)">
                            <g>
                                <path
                                    d="M140.245,67.466C140.653,64.684 140.809,61.96 140.865,57.801C141.306,25.713 113.429,1.039 82.344,0.862C74.738,0.812 70.932,0.812 63.322,0.862C32.228,1.039 4.44,25.408 4.805,57.801C4.85,61.875 4.984,64.744 5.37,67.544C1.379,73.377 -0.671,81.145 0.197,89.423L0.453,91.882C2.163,108.161 14.494,120.213 27.989,118.794L28.705,118.719C37.918,135.997 54.221,146.927 72.823,146.997L72.823,147L72.865,147C74.377,147 75.6,145.776 75.6,144.262L75.6,134.527C75.6,133.02 74.377,131.8 72.872,131.793L72.872,131.774C53.968,131.774 36.929,108.658 36.929,85.398C36.929,62.409 53.968,38.906 72.794,38.906L72.794,38.909L72.834,38.909C74.344,38.909 75.569,37.686 75.569,36.171L75.569,26.557C75.569,25.06 74.363,23.843 72.872,23.822L72.872,23.797C52.582,23.852 35.025,36.824 26.409,56.864L21.532,57.378C21.279,57.405 21.038,57.467 20.787,57.503C19.662,33.191 42.061,15.646 66.062,15.513C72.199,15.475 75.267,15.475 81.404,15.513C105.377,15.646 126.038,33.243 125.265,57.566C124.89,57.505 124.521,57.418 124.139,57.378L116.327,56.555L116.327,56.563C116.302,56.558 116.277,56.552 116.253,56.545C114.557,56.367 113.034,57.595 112.857,59.291L107.05,114.575C106.872,116.268 108.1,117.79 109.796,117.964C109.824,117.968 109.846,117.961 109.874,117.964L109.874,117.974L117.683,118.794C131.177,120.213 143.505,108.161 145.214,91.882L145.474,89.423C146.349,81.106 144.271,73.307 140.245,67.466Z"
                                    style="fill:currentColor;" />
                            </g>
                        </g>
                    </g>
                </svg>