<svg width="100%" height="100%" viewBox="0 0 130 130" version="1.1" xmlns="http://www.w3.org/2000/svg" xmlns:xlink="http://www.w3.org/1999/xlink" xml:space="preserve" xmlns:serif="http://www.serif.com/" style="fill-rule:evenodd;clip-rule:evenodd;stroke-linejoin:round;stroke-miterlimit:2;">
                    <g transform="matrix(0.8125,0,0,0.8125,-13,-13)">
                        <path
                            d="M45.438,16L57.266,58.75L57.266,79.25L67.516,79.25L67.516,58.75L79.5,16L69.172,16L64.875,35.453C63.667,41.133 62.899,45.17 62.547,47.578L62.234,47.578C61.73,44.21 60.962,40.143 59.906,35.375L55.766,16L45.438,16ZM91.453,32.141C87.981,32.141 85.183,32.819 83.047,34.203C80.911,35.579 79.336,37.781 78.328,40.797C77.328,43.813 76.828,47.805 76.828,52.781L76.828,59.5C76.828,64.42 77.261,68.36 78.141,71.328C79.021,74.296 80.506,76.483 82.594,77.891C84.682,79.299 87.555,80 91.219,80C94.787,80 97.623,79.306 99.703,77.922C101.783,76.538 103.291,74.367 104.219,71.375C105.147,68.383 105.609,64.428 105.609,59.5L105.609,52.781C105.609,47.813 105.139,43.836 104.188,40.844C103.236,37.86 101.72,35.658 99.656,34.25C97.592,32.842 94.869,32.141 91.453,32.141ZM111.031,33.047L111.031,67.563C111.031,71.835 111.747,74.976 113.203,76.984C114.659,78.992 116.92,80 119.984,80C124.4,80 127.729,77.866 129.938,73.594L130.156,73.594L131.062,79.25L139.203,79.25L139.203,33.047L128.812,33.047L128.812,69.75C128.413,70.606 127.801,71.307 126.969,71.859C126.137,72.419 125.279,72.688 124.375,72.688C123.319,72.688 122.565,72.255 122.109,71.375C121.653,70.495 121.422,69.017 121.422,66.953L121.422,33.047L111.031,33.047ZM91.219,39.297C92.675,39.297 93.705,40.058 94.281,41.594C94.857,43.122 95.141,45.555 95.141,48.875L95.141,63.266C95.141,66.682 94.857,69.152 94.281,70.656C93.705,72.16 92.682,72.914 91.234,72.922C89.778,72.922 88.771,72.16 88.219,70.656C87.659,69.152 87.391,66.682 87.391,63.266L87.391,48.875C87.391,45.563 87.674,43.13 88.25,41.594C88.826,40.066 89.811,39.297 91.219,39.297ZM40,88C31.2,88 24,95.2 24,104L24,160C24,168.8 31.2,176 40,176L152,176C160.8,176 168,168.8 168,160L168,104C168,95.2 160.8,88 152,88L40,88ZM96.391,104L104.844,104L104.844,124.547L104.906,124.547C105.666,123.059 106.756,121.865 108.156,120.953C109.556,120.041 111.072,119.594 112.688,119.594C114.767,119.594 116.394,120.146 117.578,121.25C118.762,122.354 119.628,124.138 120.156,126.594C120.684,129.058 120.937,132.476 120.938,136.844L120.938,143.016L120.953,143.016C120.953,148.832 120.244,153.092 118.844,155.828C117.444,158.564 115.265,159.938 112.297,159.938C110.641,159.938 109.141,159.557 107.781,158.797C106.421,158.037 105.399,156.992 104.719,155.672L104.531,155.672L103.641,159.359L96.391,159.359L96.391,104ZM43.891,105.969L69.906,105.969L69.906,113.047L61.188,113.047L61.188,159.359L52.609,159.359L52.609,113.047L43.891,113.047L43.891,105.969ZM136.781,119.609C139.789,119.609 142.103,120.162 143.719,121.266C145.327,122.37 146.461,124.094 147.125,126.422C147.781,128.758 148.109,131.982 148.109,136.094L148.109,142.781L133.422,142.781L133.422,144.766C133.422,147.27 133.489,149.143 133.641,150.391C133.793,151.639 134.098,152.557 134.562,153.125C135.026,153.701 135.743,153.984 136.719,153.984C138.031,153.984 138.934,153.469 139.422,152.453C139.91,151.437 140.179,149.751 140.219,147.375L147.797,147.812C147.837,148.149 147.859,148.627 147.859,149.219C147.859,152.827 146.867,155.521 144.891,157.297C142.915,159.081 140.139,159.969 136.531,159.969C132.203,159.969 129.166,158.603 127.422,155.891C125.678,153.179 124.812,148.985 124.812,143.297L124.812,136.484C124.812,130.628 125.716,126.352 127.516,123.656C129.316,120.96 132.413,119.609 136.781,119.609ZM67.281,120.359L76.078,120.359L76.078,149C76.078,150.736 76.272,151.983 76.656,152.719C77.04,153.463 77.667,153.828 78.563,153.828C79.323,153.828 80.07,153.597 80.766,153.125C81.47,152.661 81.968,152.064 82.312,151.344L82.312,120.359L91.109,120.359L91.109,159.359L84.219,159.359L83.469,154.578L83.266,154.578C81.394,158.194 78.595,160 74.859,160C72.267,160 70.373,159.149 69.141,157.453C67.909,155.757 67.281,153.1 67.281,149.5L67.281,120.359ZM136.594,125.547C135.658,125.547 134.964,125.831 134.516,126.375C134.068,126.927 133.769,127.83 133.625,129.078C133.473,130.326 133.406,132.222 133.406,134.766L133.406,137.562L139.828,137.562L139.828,134.766C139.828,132.262 139.746,130.374 139.578,129.078C139.418,127.782 139.104,126.872 138.656,126.344C138.208,125.816 137.53,125.547 136.594,125.547ZM108.734,125.828C107.886,125.828 107.111,126.164 106.391,126.844C105.671,127.524 105.155,128.397 104.859,129.453L104.859,151.594C105.243,152.274 105.743,152.781 106.359,153.125C106.975,153.461 107.631,153.641 108.359,153.641C109.295,153.641 110.026,153.305 110.578,152.625C111.13,151.945 111.534,150.803 111.766,149.188C111.998,147.579 112.109,145.34 112.109,142.5L112.109,137.484C112.109,134.428 112.02,132.078 111.828,130.422C111.636,128.766 111.292,127.571 110.812,126.875C110.325,126.179 109.63,125.828 108.734,125.828Z"
                            style="fill-rule:nonzero; fill:currentColor;" />
                    </g>
                </svg>